<mxfile host="Electron" modified="2025-03-11T14:51:33.763Z" agent="Mozilla/5.0 (Windows NT 10.0; Win64; x64) AppleWebKit/537.36 (KHTML, like Gecko) draw.io/21.5.0 Chrome/112.0.5615.204 Electron/24.5.1 Safari/537.36" etag="_me9PSbxkBqzBwebtjCH" version="21.5.0" type="device">
  <diagram name="第 1 页" id="nJRzv5rlB3VEnub_vDUY">
    <mxGraphModel dx="2241" dy="817" grid="1" gridSize="10" guides="1" tooltips="1" connect="1" arrows="1" fold="1" page="1" pageScale="1" pageWidth="827" pageHeight="1169" math="0" shadow="0">
      <root>
        <mxCell id="0" />
        <mxCell id="1" parent="0" />
        <mxCell id="pI973K098g65e1ilIYmJ-1" value="8" style="rounded=0;whiteSpace=wrap;html=1;fillColor=#ffe6cc;strokeColor=#d79b00;" parent="1" vertex="1">
          <mxGeometry x="696" y="266" width="70" height="30" as="geometry" />
        </mxCell>
        <mxCell id="LaAcIT-mZOWXAvsEYPyt-2" value="" style="shape=curlyBracket;whiteSpace=wrap;html=1;rounded=1;labelPosition=left;verticalLabelPosition=middle;align=right;verticalAlign=middle;rotation=90;size=0.5;" parent="1" vertex="1">
          <mxGeometry x="616" y="96" width="20" height="280" as="geometry" />
        </mxCell>
        <mxCell id="LaAcIT-mZOWXAvsEYPyt-3" value="&lt;font style=&quot;font-size: 16px;&quot;&gt;向量寄存器长度 &lt;font color=&quot;#ff0000&quot;&gt;128&amp;nbsp;&lt;/font&gt;bit&lt;/font&gt;" style="text;strokeColor=none;align=center;fillColor=none;html=1;verticalAlign=middle;whiteSpace=wrap;rounded=0;" parent="1" vertex="1">
          <mxGeometry x="521.25" y="190" width="237.5" height="30" as="geometry" />
        </mxCell>
        <mxCell id="a2nmbCxX_LsTJUr5ybK8-1" value="4" style="rounded=0;whiteSpace=wrap;html=1;fillColor=#ffe6cc;strokeColor=#d79b00;" parent="1" vertex="1">
          <mxGeometry x="626" y="266" width="70" height="30" as="geometry" />
        </mxCell>
        <mxCell id="a2nmbCxX_LsTJUr5ybK8-2" value="11" style="rounded=0;whiteSpace=wrap;html=1;fillColor=#ffe6cc;strokeColor=#d79b00;" parent="1" vertex="1">
          <mxGeometry x="556" y="266" width="70" height="30" as="geometry" />
        </mxCell>
        <mxCell id="a2nmbCxX_LsTJUr5ybK8-3" value="9" style="rounded=0;whiteSpace=wrap;html=1;fillColor=#ffe6cc;strokeColor=#d79b00;" parent="1" vertex="1">
          <mxGeometry x="486" y="266" width="70" height="30" as="geometry" />
        </mxCell>
        <mxCell id="a2nmbCxX_LsTJUr5ybK8-4" value="x" style="rounded=0;whiteSpace=wrap;html=1;fillColor=#ffe6cc;strokeColor=#d79b00;" parent="1" vertex="1">
          <mxGeometry x="696" y="319.5" width="70" height="30" as="geometry" />
        </mxCell>
        <mxCell id="a2nmbCxX_LsTJUr5ybK8-5" value="x" style="rounded=0;whiteSpace=wrap;html=1;fillColor=#ffe6cc;strokeColor=#d79b00;" parent="1" vertex="1">
          <mxGeometry x="626" y="319.5" width="70" height="30" as="geometry" />
        </mxCell>
        <mxCell id="a2nmbCxX_LsTJUr5ybK8-6" value="x" style="rounded=0;whiteSpace=wrap;html=1;fillColor=#ffe6cc;strokeColor=#d79b00;" parent="1" vertex="1">
          <mxGeometry x="556" y="319.5" width="70" height="30" as="geometry" />
        </mxCell>
        <mxCell id="a2nmbCxX_LsTJUr5ybK8-7" value="x" style="rounded=0;whiteSpace=wrap;html=1;fillColor=#ffe6cc;strokeColor=#d79b00;" parent="1" vertex="1">
          <mxGeometry x="486" y="319.5" width="70" height="30" as="geometry" />
        </mxCell>
        <mxCell id="a2nmbCxX_LsTJUr5ybK8-8" value="x" style="rounded=0;whiteSpace=wrap;html=1;fillColor=#ffe6cc;strokeColor=#d79b00;" parent="1" vertex="1">
          <mxGeometry x="696" y="374.5" width="70" height="30" as="geometry" />
        </mxCell>
        <mxCell id="a2nmbCxX_LsTJUr5ybK8-9" value="x" style="rounded=0;whiteSpace=wrap;html=1;fillColor=#ffe6cc;strokeColor=#d79b00;" parent="1" vertex="1">
          <mxGeometry x="626" y="374.5" width="70" height="30" as="geometry" />
        </mxCell>
        <mxCell id="a2nmbCxX_LsTJUr5ybK8-10" value="x" style="rounded=0;whiteSpace=wrap;html=1;fillColor=#ffe6cc;strokeColor=#d79b00;" parent="1" vertex="1">
          <mxGeometry x="556" y="374.5" width="70" height="30" as="geometry" />
        </mxCell>
        <mxCell id="a2nmbCxX_LsTJUr5ybK8-11" value="x" style="rounded=0;whiteSpace=wrap;html=1;fillColor=#ffe6cc;strokeColor=#d79b00;" parent="1" vertex="1">
          <mxGeometry x="486" y="374.5" width="70" height="30" as="geometry" />
        </mxCell>
        <mxCell id="a2nmbCxX_LsTJUr5ybK8-12" value="x" style="rounded=0;whiteSpace=wrap;html=1;fillColor=#ffe6cc;strokeColor=#d79b00;" parent="1" vertex="1">
          <mxGeometry x="696" y="429.5" width="70" height="30" as="geometry" />
        </mxCell>
        <mxCell id="a2nmbCxX_LsTJUr5ybK8-13" value="x" style="rounded=0;whiteSpace=wrap;html=1;fillColor=#ffe6cc;strokeColor=#d79b00;" parent="1" vertex="1">
          <mxGeometry x="626" y="429.5" width="70" height="30" as="geometry" />
        </mxCell>
        <mxCell id="a2nmbCxX_LsTJUr5ybK8-14" value="x" style="rounded=0;whiteSpace=wrap;html=1;fillColor=#ffe6cc;strokeColor=#d79b00;" parent="1" vertex="1">
          <mxGeometry x="556" y="429.5" width="70" height="30" as="geometry" />
        </mxCell>
        <mxCell id="a2nmbCxX_LsTJUr5ybK8-15" value="x" style="rounded=0;whiteSpace=wrap;html=1;fillColor=#ffe6cc;strokeColor=#d79b00;" parent="1" vertex="1">
          <mxGeometry x="486" y="429.5" width="70" height="30" as="geometry" />
        </mxCell>
        <mxCell id="a2nmbCxX_LsTJUr5ybK8-16" value="V0" style="text;strokeColor=none;align=center;fillColor=none;html=1;verticalAlign=middle;whiteSpace=wrap;rounded=0;" parent="1" vertex="1">
          <mxGeometry x="396" y="266" width="60" height="30" as="geometry" />
        </mxCell>
        <mxCell id="a2nmbCxX_LsTJUr5ybK8-21" value="v1" style="text;strokeColor=none;align=center;fillColor=none;html=1;verticalAlign=middle;whiteSpace=wrap;rounded=0;" parent="1" vertex="1">
          <mxGeometry x="396" y="319.5" width="60" height="30" as="geometry" />
        </mxCell>
        <mxCell id="a2nmbCxX_LsTJUr5ybK8-22" value="v2" style="text;strokeColor=none;align=center;fillColor=none;html=1;verticalAlign=middle;whiteSpace=wrap;rounded=0;" parent="1" vertex="1">
          <mxGeometry x="396" y="376" width="60" height="30" as="geometry" />
        </mxCell>
        <mxCell id="a2nmbCxX_LsTJUr5ybK8-23" value="v3" style="text;strokeColor=none;align=center;fillColor=none;html=1;verticalAlign=middle;whiteSpace=wrap;rounded=0;" parent="1" vertex="1">
          <mxGeometry x="396" y="429.5" width="60" height="30" as="geometry" />
        </mxCell>
        <mxCell id="cqtbIIelo_trgMiKMbrQ-1" value="7*4" style="rounded=0;whiteSpace=wrap;html=1;fillColor=#ffe6cc;strokeColor=#d79b00;" vertex="1" parent="1">
          <mxGeometry x="276" y="266" width="70" height="30" as="geometry" />
        </mxCell>
        <mxCell id="cqtbIIelo_trgMiKMbrQ-2" value="3*4" style="rounded=0;whiteSpace=wrap;html=1;fillColor=#ffe6cc;strokeColor=#d79b00;" vertex="1" parent="1">
          <mxGeometry x="206" y="266" width="70" height="30" as="geometry" />
        </mxCell>
        <mxCell id="cqtbIIelo_trgMiKMbrQ-3" value="10*4" style="rounded=0;whiteSpace=wrap;html=1;fillColor=#ffe6cc;strokeColor=#d79b00;" vertex="1" parent="1">
          <mxGeometry x="136" y="266" width="70" height="30" as="geometry" />
        </mxCell>
        <mxCell id="cqtbIIelo_trgMiKMbrQ-4" value="8*4" style="rounded=0;whiteSpace=wrap;html=1;fillColor=#ffe6cc;strokeColor=#d79b00;" vertex="1" parent="1">
          <mxGeometry x="66" y="266" width="70" height="30" as="geometry" />
        </mxCell>
        <mxCell id="cqtbIIelo_trgMiKMbrQ-5" value="V4" style="text;strokeColor=none;align=center;fillColor=none;html=1;verticalAlign=middle;whiteSpace=wrap;rounded=0;" vertex="1" parent="1">
          <mxGeometry x="-24" y="266" width="60" height="30" as="geometry" />
        </mxCell>
        <mxCell id="cqtbIIelo_trgMiKMbrQ-9" value="1" style="rounded=0;whiteSpace=wrap;html=1;fillColor=#A9C4EB;strokeColor=#d79b00;" vertex="1" parent="1">
          <mxGeometry x="66" y="90" width="30" height="30" as="geometry" />
        </mxCell>
        <mxCell id="cqtbIIelo_trgMiKMbrQ-10" value="2" style="rounded=0;whiteSpace=wrap;html=1;fillColor=#A9C4EB;strokeColor=#d79b00;" vertex="1" parent="1">
          <mxGeometry x="96" y="90" width="30" height="30" as="geometry" />
        </mxCell>
        <mxCell id="cqtbIIelo_trgMiKMbrQ-11" value="3" style="rounded=0;whiteSpace=wrap;html=1;fillColor=#A9C4EB;strokeColor=#d79b00;" vertex="1" parent="1">
          <mxGeometry x="126" y="90" width="30" height="30" as="geometry" />
        </mxCell>
        <mxCell id="cqtbIIelo_trgMiKMbrQ-12" value="4" style="rounded=0;whiteSpace=wrap;html=1;fillColor=#A9C4EB;strokeColor=#d79b00;" vertex="1" parent="1">
          <mxGeometry x="156" y="90" width="30" height="30" as="geometry" />
        </mxCell>
        <mxCell id="cqtbIIelo_trgMiKMbrQ-13" value="5" style="rounded=0;whiteSpace=wrap;html=1;fillColor=#A9C4EB;strokeColor=#d79b00;" vertex="1" parent="1">
          <mxGeometry x="186" y="90" width="30" height="30" as="geometry" />
        </mxCell>
        <mxCell id="cqtbIIelo_trgMiKMbrQ-14" value="6" style="rounded=0;whiteSpace=wrap;html=1;fillColor=#A9C4EB;strokeColor=#d79b00;" vertex="1" parent="1">
          <mxGeometry x="216" y="90" width="30" height="30" as="geometry" />
        </mxCell>
        <mxCell id="cqtbIIelo_trgMiKMbrQ-15" value="7" style="rounded=0;whiteSpace=wrap;html=1;fillColor=#A9C4EB;strokeColor=#d79b00;" vertex="1" parent="1">
          <mxGeometry x="246" y="90" width="30" height="30" as="geometry" />
        </mxCell>
        <mxCell id="cqtbIIelo_trgMiKMbrQ-16" value="8" style="rounded=0;whiteSpace=wrap;html=1;fillColor=#A9C4EB;strokeColor=#d79b00;" vertex="1" parent="1">
          <mxGeometry x="276" y="90" width="30" height="30" as="geometry" />
        </mxCell>
        <mxCell id="cqtbIIelo_trgMiKMbrQ-17" value="9" style="rounded=0;whiteSpace=wrap;html=1;fillColor=#A9C4EB;strokeColor=#d79b00;" vertex="1" parent="1">
          <mxGeometry x="306" y="90" width="30" height="30" as="geometry" />
        </mxCell>
        <mxCell id="cqtbIIelo_trgMiKMbrQ-18" value="10" style="rounded=0;whiteSpace=wrap;html=1;fillColor=#A9C4EB;strokeColor=#d79b00;" vertex="1" parent="1">
          <mxGeometry x="336" y="90" width="30" height="30" as="geometry" />
        </mxCell>
        <mxCell id="cqtbIIelo_trgMiKMbrQ-19" value="11" style="rounded=0;whiteSpace=wrap;html=1;fillColor=#A9C4EB;strokeColor=#d79b00;" vertex="1" parent="1">
          <mxGeometry x="366" y="90" width="30" height="30" as="geometry" />
        </mxCell>
        <mxCell id="cqtbIIelo_trgMiKMbrQ-20" value="12" style="rounded=0;whiteSpace=wrap;html=1;fillColor=#A9C4EB;strokeColor=#d79b00;" vertex="1" parent="1">
          <mxGeometry x="396" y="90" width="30" height="30" as="geometry" />
        </mxCell>
        <mxCell id="cqtbIIelo_trgMiKMbrQ-21" value="13" style="rounded=0;whiteSpace=wrap;html=1;fillColor=#A9C4EB;strokeColor=#d79b00;" vertex="1" parent="1">
          <mxGeometry x="426" y="90" width="30" height="30" as="geometry" />
        </mxCell>
        <mxCell id="cqtbIIelo_trgMiKMbrQ-22" value="14" style="rounded=0;whiteSpace=wrap;html=1;fillColor=#A9C4EB;strokeColor=#d79b00;" vertex="1" parent="1">
          <mxGeometry x="456" y="90" width="30" height="30" as="geometry" />
        </mxCell>
        <mxCell id="cqtbIIelo_trgMiKMbrQ-23" value="15" style="rounded=0;whiteSpace=wrap;html=1;fillColor=#A9C4EB;strokeColor=#d79b00;" vertex="1" parent="1">
          <mxGeometry x="486" y="90" width="30" height="30" as="geometry" />
        </mxCell>
        <mxCell id="cqtbIIelo_trgMiKMbrQ-24" value="16" style="rounded=0;whiteSpace=wrap;html=1;fillColor=#A9C4EB;strokeColor=#d79b00;" vertex="1" parent="1">
          <mxGeometry x="516" y="90" width="30" height="30" as="geometry" />
        </mxCell>
        <mxCell id="cqtbIIelo_trgMiKMbrQ-25" value="int pSrc[16]" style="text;strokeColor=none;align=center;fillColor=none;html=1;verticalAlign=middle;whiteSpace=wrap;rounded=0;" vertex="1" parent="1">
          <mxGeometry x="-37" y="90" width="86" height="30" as="geometry" />
        </mxCell>
        <mxCell id="cqtbIIelo_trgMiKMbrQ-27" value="" style="endArrow=classic;html=1;rounded=0;entryX=0.5;entryY=1;entryDx=0;entryDy=0;" edge="1" parent="1" target="cqtbIIelo_trgMiKMbrQ-17">
          <mxGeometry width="50" height="50" relative="1" as="geometry">
            <mxPoint x="100" y="265" as="sourcePoint" />
            <mxPoint x="150" y="215" as="targetPoint" />
          </mxGeometry>
        </mxCell>
        <mxCell id="cqtbIIelo_trgMiKMbrQ-28" value="" style="endArrow=classic;html=1;rounded=0;entryX=0.5;entryY=1;entryDx=0;entryDy=0;" edge="1" parent="1" target="cqtbIIelo_trgMiKMbrQ-19">
          <mxGeometry width="50" height="50" relative="1" as="geometry">
            <mxPoint x="180" y="266" as="sourcePoint" />
            <mxPoint x="381" y="126" as="targetPoint" />
          </mxGeometry>
        </mxCell>
        <mxCell id="cqtbIIelo_trgMiKMbrQ-29" value="" style="endArrow=classic;html=1;rounded=0;entryX=0.5;entryY=1;entryDx=0;entryDy=0;" edge="1" parent="1" target="cqtbIIelo_trgMiKMbrQ-12">
          <mxGeometry width="50" height="50" relative="1" as="geometry">
            <mxPoint x="240" y="268" as="sourcePoint" />
            <mxPoint x="290" y="218" as="targetPoint" />
          </mxGeometry>
        </mxCell>
        <mxCell id="cqtbIIelo_trgMiKMbrQ-30" value="" style="endArrow=classic;html=1;rounded=0;entryX=0.5;entryY=1;entryDx=0;entryDy=0;" edge="1" parent="1" target="cqtbIIelo_trgMiKMbrQ-16">
          <mxGeometry width="50" height="50" relative="1" as="geometry">
            <mxPoint x="308" y="268" as="sourcePoint" />
            <mxPoint x="239" y="120" as="targetPoint" />
          </mxGeometry>
        </mxCell>
        <mxCell id="cqtbIIelo_trgMiKMbrQ-31" value="&lt;font color=&quot;#ff0000&quot;&gt;Step1&lt;/font&gt;:&lt;font style=&quot;font-size: 14px;&quot;&gt;获取index向量&lt;/font&gt;" style="text;strokeColor=none;align=left;fillColor=none;html=1;verticalAlign=middle;whiteSpace=wrap;rounded=0;" vertex="1" parent="1">
          <mxGeometry x="66" y="330" width="174" height="30" as="geometry" />
        </mxCell>
        <mxCell id="cqtbIIelo_trgMiKMbrQ-32" value="&lt;font style=&quot;font-size: 14px;&quot;&gt;&lt;font style=&quot;font-size: 14px;&quot; color=&quot;#ff0000&quot;&gt;Step2&lt;/font&gt;:根据index向量的指使，从内存对应位置load&lt;/font&gt;" style="text;strokeColor=none;align=center;fillColor=none;html=1;verticalAlign=middle;whiteSpace=wrap;rounded=0;" vertex="1" parent="1">
          <mxGeometry x="480" y="150" width="324" height="30" as="geometry" />
        </mxCell>
        <mxCell id="cqtbIIelo_trgMiKMbrQ-33" value="" style="shape=flexArrow;endArrow=classic;html=1;rounded=0;strokeColor=#A9C4EB;fillColor=#A9C4EB;" edge="1" parent="1">
          <mxGeometry width="50" height="50" relative="1" as="geometry">
            <mxPoint x="410" y="130" as="sourcePoint" />
            <mxPoint x="450" y="230" as="targetPoint" />
          </mxGeometry>
        </mxCell>
      </root>
    </mxGraphModel>
  </diagram>
</mxfile>
